<svg id="visual" viewBox="0 0 900 450" width="900" height="450" xmlns="http://www.w3.org/2000/svg" xmlns:xlink="http://www.w3.org/1999/xlink" version="1.1"><rect x="0" y="0" width="900" height="450" fill="#001220"></rect><path d="M0 336L21.5 333.5C43 331 86 326 128.8 322.5C171.7 319 214.3 317 257.2 320.5C300 324 343 333 385.8 327.5C428.7 322 471.3 302 514.2 302.7C557 303.3 600 324.7 642.8 337.3C685.7 350 728.3 354 771.2 346C814 338 857 318 878.5 308L900 298L900 451L878.5 451C857 451 814 451 771.2 451C728.3 451 685.7 451 642.8 451C600 451 557 451 514.2 451C471.3 451 428.7 451 385.8 451C343 451 300 451 257.2 451C214.3 451 171.7 451 128.8 451C86 451 43 451 21.5 451L0 451Z" fill="#560090" stroke-linecap="round" stroke-linejoin="miter"></path></svg>