<svg id="visual" viewBox="0 0 900 600" width="900" height="600" xmlns="http://www.w3.org/2000/svg" xmlns:xlink="http://www.w3.org/1999/xlink" version="1.1"><rect x="0" y="0" width="900" height="600" fill="#293241"></rect><path d="M0 458L21.5 451.8C43 445.7 86 433.3 128.8 436.7C171.7 440 214.3 459 257.2 454.2C300 449.3 343 420.7 385.8 411.2C428.7 401.7 471.3 411.3 514.2 417.7C557 424 600 427 642.8 420.8C685.7 414.7 728.3 399.3 771.2 397.3C814 395.3 857 406.7 878.5 412.3L900 418L900 601L878.5 601C857 601 814 601 771.2 601C728.3 601 685.7 601 642.8 601C600 601 557 601 514.2 601C471.3 601 428.7 601 385.8 601C343 601 300 601 257.2 601C214.3 601 171.7 601 128.8 601C86 601 43 601 21.5 601L0 601Z" fill="#560090" stroke-linecap="round" stroke-linejoin="miter"></path></svg>